<?xml version="1.0" encoding="UTF-8"?>
<!DOCTYPE svg PUBLIC "-//W3C//DTD SVG 1.1//EN" "http://www.w3.org/Graphics/SVG/1.1/DTD/svg11.dtd">
<svg xmlns="http://www.w3.org/2000/svg" version="1.1" width="259px" height="194px" style="shape-rendering:geometricPrecision; text-rendering:geometricPrecision; image-rendering:optimizeQuality; fill-rule:evenodd; clip-rule:evenodd" xmlns:xlink="http://www.w3.org/1999/xlink">
<g><path style="opacity:1" fill="#000000" d="M -0.5,-0.5 C 36.8333,-0.5 74.1667,-0.5 111.5,-0.5C 110.737,0.26791 109.737,0.76791 108.5,1C 108.833,1.33333 109.167,1.66667 109.5,2C 106.945,3.44449 104.279,4.61116 101.5,5.5C 100.388,6.26515 99.7214,7.26515 99.5,8.5C 98.8501,8.19607 98.1835,7.86273 97.5,7.5C 97.3309,8.39656 96.9976,9.39656 96.5,10.5C 94.2534,11.3742 91.9201,11.7076 89.5,11.5C 89.719,12.675 89.3857,13.675 88.5,14.5C 86.336,14.9976 84.6694,16.1642 83.5,18C 81.5979,19.6511 79.5979,19.9845 77.5,19C 78.8333,19.6667 78.8333,20.3333 77.5,21C 75.2115,21.8221 72.8782,22.4888 70.5,23C 70.8333,23.3333 71.1667,23.6667 71.5,24C 66.4328,25.0326 62.0995,27.3659 58.5,31C 56.028,32.4601 53.3613,33.4601 50.5,34C 49.8333,35 49.1667,36 48.5,37C 42.664,36.9996 40.3307,39.8329 41.5,45.5C 40.375,46.3478 40.375,47.3478 41.5,48.5C 41.5,73.1667 41.5,97.8333 41.5,122.5C 40.1667,123.5 40.1667,124.5 41.5,125.5C 41.3367,127.857 41.5034,130.19 42,132.5C 42.7096,133.973 43.8762,134.64 45.5,134.5C 46.1667,134.5 46.8333,134.5 47.5,134.5C 53.8504,139.009 60.5171,143.009 67.5,146.5C 70.1443,148.723 73.1443,150.389 76.5,151.5C 95.2686,163.017 114.935,174.35 135.5,185.5C 136.598,186.397 136.598,187.23 135.5,188C 137.725,188.561 139.725,189.561 141.5,191C 143.066,191.765 144.399,191.598 145.5,190.5C 147.553,190.598 149.22,189.931 150.5,188.5C 153.923,186.372 157.423,184.372 161,182.5C 161.414,182.957 161.914,183.291 162.5,183.5C 163.711,182.726 163.711,181.893 162.5,181C 165.229,180.995 167.229,179.829 168.5,177.5C 181.081,170.627 193.581,163.627 206,156.5C 206.308,157.308 206.808,157.975 207.5,158.5C 208.562,157.575 208.562,156.575 207.5,155.5C 210.015,154.836 212.181,153.503 214,151.5C 214.667,140.833 214.667,130.167 214,119.5C 211.079,117.936 208.579,115.936 206.5,113.5C 205.311,112.571 203.978,112.238 202.5,112.5C 191.019,106.929 180.019,100.595 169.5,93.5C 167.491,92.0921 165.491,90.5921 163.5,89C 156.759,76.3329 150.092,63.4996 143.5,50.5C 143.833,49.8333 144.167,49.1667 144.5,48.5C 142.833,45.1667 141.167,41.8333 139.5,38.5C 142.756,37.1067 146.09,35.1067 149.5,32.5C 150.439,28.2351 150.772,23.9017 150.5,19.5C 143.207,15.9043 135.874,12.2376 128.5,8.5C 123.936,5.72744 119.602,2.72744 115.5,-0.5C 163.167,-0.5 210.833,-0.5 258.5,-0.5C 258.5,64.1667 258.5,128.833 258.5,193.5C 172.167,193.5 85.8333,193.5 -0.5,193.5C -0.5,128.833 -0.5,64.1667 -0.5,-0.5 Z"/></g>
<g><path style="opacity:1" fill="#4a4a4a" d="M 122.5,44.5 C 107.883,53.6921 93.2159,62.6921 78.5,71.5C 78.8256,67.1161 78.4922,62.7828 77.5,58.5C 67.3058,53.9076 57.6391,48.5743 48.5,42.5C 48.5,41.8333 48.1667,41.5 47.5,41.5C 46.791,40.596 45.791,40.2627 44.5,40.5C 44.5,42.1667 44.5,43.8333 44.5,45.5C 43.5,45.5 42.5,45.5 41.5,45.5C 40.3307,39.8329 42.664,36.9996 48.5,37C 49.1667,36 49.8333,35 50.5,34C 53.3613,33.4601 56.028,32.4601 58.5,31C 62.0995,27.3659 66.4328,25.0326 71.5,24C 71.1667,23.6667 70.8333,23.3333 70.5,23C 72.8782,22.4888 75.2115,21.8221 77.5,21C 78.8333,20.3333 78.8333,19.6667 77.5,19C 79.5979,19.9845 81.5979,19.6511 83.5,18C 84.6694,16.1642 86.336,14.9976 88.5,14.5C 89.3857,13.675 89.719,12.675 89.5,11.5C 91.9201,11.7076 94.2534,11.3742 96.5,10.5C 96.9976,9.39656 97.3309,8.39656 97.5,7.5C 98.1835,7.86273 98.8501,8.19607 99.5,8.5C 99.56,9.04309 99.8933,9.37642 100.5,9.5C 104.666,6.1368 109.333,4.30347 114.5,4C 125.073,9.24806 134.739,15.0814 143.5,21.5C 140.167,23.5 136.833,25.5 133.5,27.5C 133.833,27.8333 134.167,28.1667 134.5,28.5C 138.107,27.3631 141.44,25.6965 144.5,23.5C 145.652,26.1062 145.818,28.7728 145,31.5C 141.091,35.0373 136.591,37.3707 131.5,38.5C 128.459,40.5591 125.459,42.5591 122.5,44.5 Z"/></g>
<g><path style="opacity:1" fill="#3c3c3c" d="M 111.5,-0.5 C 112.833,-0.5 114.167,-0.5 115.5,-0.5C 119.602,2.72744 123.936,5.72744 128.5,8.5C 135.874,12.2376 143.207,15.9043 150.5,19.5C 150.772,23.9017 150.439,28.2351 149.5,32.5C 146.09,35.1067 142.756,37.1067 139.5,38.5C 141.167,41.8333 142.833,45.1667 144.5,48.5C 144.167,49.1667 143.833,49.8333 143.5,50.5C 150.092,63.4996 156.759,76.3329 163.5,89C 165.491,90.5921 167.491,92.0921 169.5,93.5C 167.167,92.8333 164.833,92.1667 162.5,91.5C 153.205,74.916 144.372,57.916 136,40.5C 132.312,39.7408 129.146,40.9075 126.5,44C 125.207,44.49 123.873,44.6567 122.5,44.5C 125.459,42.5591 128.459,40.5591 131.5,38.5C 136.591,37.3707 141.091,35.0373 145,31.5C 145.818,28.7728 145.652,26.1062 144.5,23.5C 141.44,25.6965 138.107,27.3631 134.5,28.5C 134.167,28.1667 133.833,27.8333 133.5,27.5C 136.833,25.5 140.167,23.5 143.5,21.5C 134.739,15.0814 125.073,9.24806 114.5,4C 109.333,4.30347 104.666,6.1368 100.5,9.5C 99.8933,9.37642 99.56,9.04309 99.5,8.5C 99.7214,7.26515 100.388,6.26515 101.5,5.5C 104.279,4.61116 106.945,3.44449 109.5,2C 109.167,1.66667 108.833,1.33333 108.5,1C 109.737,0.76791 110.737,0.26791 111.5,-0.5 Z"/></g>
<g><path style="opacity:1" fill="#f9f9f9" d="M 48.5,42.5 C 57.6391,48.5743 67.3058,53.9076 77.5,58.5C 78.4922,62.7828 78.8256,67.1161 78.5,71.5C 78.1583,72.3382 77.4916,72.6716 76.5,72.5C 73.4851,73.8066 70.4851,74.3066 67.5,74C 67.4394,75.8432 67.7727,77.6766 68.5,79.5C 77.0541,95.6064 85.3875,111.94 93.5,128.5C 93.2471,130.827 93.9137,132.827 95.5,134.5C 112.253,143.872 128.92,153.205 145.5,162.5C 145.5,171.833 145.5,181.167 145.5,190.5C 142.167,188.833 138.833,187.167 135.5,185.5C 114.935,174.35 95.2686,163.017 76.5,151.5C 74.1684,148.728 71.1684,147.061 67.5,146.5C 60.5171,143.009 53.8504,139.009 47.5,134.5C 47.1667,133.833 46.8333,133.167 46.5,132.5C 45.8411,102.148 46.5078,72.1481 48.5,42.5 Z"/></g>
<g><path style="opacity:1" fill="#afafaf" d="M 47.5,41.5 C 46.0806,43.1511 44.7473,44.9844 43.5,47C 45.1579,75.4462 46.1579,103.946 46.5,132.5C 46.8333,133.167 47.1667,133.833 47.5,134.5C 46.8333,134.5 46.1667,134.5 45.5,134.5C 44.7724,131.921 44.2724,129.254 44,126.5C 43.3292,125.748 42.4959,125.414 41.5,125.5C 40.1667,124.5 40.1667,123.5 41.5,122.5C 42.5,122.5 43.5,122.5 44.5,122.5C 44.5,97.8333 44.5,73.1667 44.5,48.5C 43.5,48.5 42.5,48.5 41.5,48.5C 40.375,47.3478 40.375,46.3478 41.5,45.5C 42.5,45.5 43.5,45.5 44.5,45.5C 44.5,43.8333 44.5,42.1667 44.5,40.5C 45.791,40.2627 46.791,40.596 47.5,41.5 Z"/></g>
<g><path style="opacity:1" fill="#525252" d="M 41.5,48.5 C 42.5,48.5 43.5,48.5 44.5,48.5C 44.5,73.1667 44.5,97.8333 44.5,122.5C 43.5,122.5 42.5,122.5 41.5,122.5C 41.5,97.8333 41.5,73.1667 41.5,48.5 Z"/></g>
<g><path style="opacity:1" fill="#c7c7c7" d="M 47.5,41.5 C 48.1667,41.5 48.5,41.8333 48.5,42.5C 46.5078,72.1481 45.8411,102.148 46.5,132.5C 46.1579,103.946 45.1579,75.4462 43.5,47C 44.7473,44.9844 46.0806,43.1511 47.5,41.5 Z"/></g>
<g><path style="opacity:1" fill="#a7a7a7" d="M 58.5,52.5 C 56.1667,52.5 53.8333,52.5 51.5,52.5C 50.6235,59.4361 53.2902,64.1027 59.5,66.5C 57.139,66.3259 54.8056,65.9926 52.5,65.5C 48.9553,60.98 48.122,55.98 50,50.5C 50.804,49.1955 51.9707,48.5288 53.5,48.5C 55.1856,49.8569 56.8523,51.1902 58.5,52.5 Z"/></g>
<g><path style="opacity:1" fill="#1c1c1c" d="M 58.5,52.5 C 60.5,54.8333 62.5,57.1667 64.5,59.5C 65.4702,63.9315 63.8035,66.2648 59.5,66.5C 53.2902,64.1027 50.6235,59.4361 51.5,52.5C 53.8333,52.5 56.1667,52.5 58.5,52.5 Z"/></g>
<g><path style="opacity:1" fill="#cfcfcf" d="M 64.5,59.5 C 65.9787,63.3824 65.6453,67.2158 63.5,71C 58.3995,72.0719 54.7328,70.2386 52.5,65.5C 54.8056,65.9926 57.139,66.3259 59.5,66.5C 63.8035,66.2648 65.4702,63.9315 64.5,59.5 Z"/></g>
<g><path style="opacity:1" fill="#8b8b8b" d="M 76.5,72.5 C 74.9674,74.2451 72.9674,75.2451 70.5,75.5C 68.8958,76.287 68.2291,77.6203 68.5,79.5C 67.7727,77.6766 67.4394,75.8432 67.5,74C 70.4851,74.3066 73.4851,73.8066 76.5,72.5 Z"/></g>
<g><path style="opacity:1" fill="#0a0a0a" d="M 162.5,91.5 C 140.982,104.092 119.315,116.426 97.5,128.5C 90.3593,115.558 83.1927,102.558 76,89.5C 73.3245,85.1513 71.4912,80.4847 70.5,75.5C 72.9674,75.2451 74.9674,74.2451 76.5,72.5C 77.4916,72.6716 78.1583,72.3382 78.5,71.5C 93.2159,62.6921 107.883,53.6921 122.5,44.5C 123.873,44.6567 125.207,44.49 126.5,44C 129.146,40.9075 132.312,39.7408 136,40.5C 144.372,57.916 153.205,74.916 162.5,91.5 Z"/></g>
<g><path style="opacity:1" fill="#4a4a4a" d="M 112.5,55.5 C 112.171,69.0105 112.504,82.3438 113.5,95.5C 116.032,96.5957 118.365,97.9291 120.5,99.5C 117.159,99.8922 113.993,98.8922 111,96.5C 103.848,100.41 96.5142,104.076 89,107.5C 83.1119,97.9298 77.6119,88.0965 72.5,78C 85.196,69.2768 98.5293,61.7768 112.5,55.5 Z"/></g>
<g><path style="opacity:1" fill="#929292" d="M 114.5,53.5 C 113.518,67.4213 113.185,81.4213 113.5,95.5C 112.504,82.3438 112.171,69.0105 112.5,55.5C 112.5,54.1667 113.167,53.5 114.5,53.5 Z"/></g>
<g><path style="opacity:1" fill="#fafafa" d="M 120.5,99.5 C 118.365,97.9291 116.032,96.5957 113.5,95.5C 113.185,81.4213 113.518,67.4213 114.5,53.5C 119.642,49.4233 125.309,46.09 131.5,43.5C 139.927,58.5985 147.927,73.9319 155.5,89.5C 147.7,95.24 139.366,100.24 130.5,104.5C 126.861,103.347 123.528,101.681 120.5,99.5 Z"/></g>
<g><path style="opacity:1" fill="#4a494a" d="M 70.5,75.5 C 71.4912,80.4847 73.3245,85.1513 76,89.5C 83.1927,102.558 90.3593,115.558 97.5,128.5C 119.315,116.426 140.982,104.092 162.5,91.5C 164.833,92.1667 167.167,92.8333 169.5,93.5C 180.019,100.595 191.019,106.929 202.5,112.5C 203.23,113.712 204.23,114.712 205.5,115.5C 204.092,116.243 202.759,117.077 201.5,118C 202,118.5 202.5,119 203,119.5C 205.927,116.844 208.76,117.01 211.5,120C 190.766,132.029 170.099,144.029 149.5,156C 147.5,156.333 145.5,156.667 143.5,157C 144.056,157.383 144.389,157.883 144.5,158.5C 127.806,149.455 111.14,140.455 94.5,131.5C 94.7373,130.209 94.404,129.209 93.5,128.5C 85.3875,111.94 77.0541,95.6064 68.5,79.5C 68.2291,77.6203 68.8958,76.287 70.5,75.5 Z"/></g>
<g><path style="opacity:1" fill="#141414" d="M 169.5,106.5 C 172.371,107.679 175.204,107.679 178,106.5C 179.319,108.25 179.819,110.25 179.5,112.5C 181.92,112.708 184.253,112.374 186.5,111.5C 187.833,112.833 187.833,114.167 186.5,115.5C 182.853,116.648 179.186,116.648 175.5,115.5C 175.5,116.5 175.5,117.5 175.5,118.5C 173.167,118.5 170.833,118.5 168.5,118.5C 166.858,121.925 165.191,125.425 163.5,129C 161.167,129.667 158.833,129.667 156.5,129C 154.963,127.89 154.297,126.39 154.5,124.5C 152.143,124.663 149.81,124.497 147.5,124C 146.24,122.186 146.24,120.353 147.5,118.5C 149.523,120.173 151.856,120.84 154.5,120.5C 154.5,119.5 154.5,118.5 154.5,117.5C 152.833,117.5 151.167,117.5 149.5,117.5C 149.215,115.712 149.548,114.045 150.5,112.5C 152.536,114.345 154.87,114.845 157.5,114C 157.463,112.051 157.963,110.218 159,108.5C 162.918,109.903 166.418,109.236 169.5,106.5 Z"/></g>
<g><path style="opacity:1" fill="#5a1514" d="M 143.5,130.5 C 140.424,131.067 137.424,131.401 134.5,131.5C 132.494,127.802 131.994,123.802 133,119.5C 136.398,118.966 139.898,118.966 143.5,119.5C 143.5,123.167 143.5,126.833 143.5,130.5 Z"/></g>
<g><path style="opacity:1" fill="#b60910" d="M 134.5,121.5 C 137.779,122.031 139.113,124.031 138.5,127.5C 136.833,127.5 135.167,127.5 133.5,127.5C 133.325,125.379 133.659,123.379 134.5,121.5 Z"/></g>
<g><path style="opacity:1" fill="#535353" d="M 41.5,125.5 C 42.4959,125.414 43.3292,125.748 44,126.5C 44.2724,129.254 44.7724,131.921 45.5,134.5C 43.8762,134.64 42.7096,133.973 42,132.5C 41.5034,130.19 41.3367,127.857 41.5,125.5 Z"/></g>
<g><path style="opacity:1" fill="#4b4b4b" d="M 207.5,155.5 C 208.562,156.575 208.562,157.575 207.5,158.5C 206.808,157.975 206.308,157.308 206,156.5C 193.581,163.627 181.081,170.627 168.5,177.5C 167.229,179.829 165.229,180.995 162.5,181C 163.711,181.893 163.711,182.726 162.5,183.5C 161.914,183.291 161.414,182.957 161,182.5C 157.423,184.372 153.923,186.372 150.5,188.5C 149.503,188.53 148.836,188.03 148.5,187C 148.245,178.733 148.578,170.4 149.5,162C 158.12,156.957 166.453,151.457 174.5,145.5C 186.495,139.256 198.328,132.922 210,126.5C 211.14,130.826 211.64,135.326 211.5,140C 211.167,144.167 210.833,148.333 210.5,152.5C 209.452,153.548 208.452,154.548 207.5,155.5 Z"/></g>
<g><path style="opacity:1" fill="#969696" d="M 215.5,119.5 C 216.828,124.288 217.495,129.454 217.5,135C 217.167,140.167 216.833,145.333 216.5,150.5C 215.501,140.188 215.168,129.855 215.5,119.5 Z"/></g>
<g><path style="opacity:1" fill="#111214" d="M 143.5,130.5 C 146.061,132.677 146.061,134.844 143.5,137C 140.5,137.667 137.5,137.667 134.5,137C 131.876,135.031 131.876,133.198 134.5,131.5C 137.424,131.401 140.424,131.067 143.5,130.5 Z"/></g>
<g><path style="opacity:1" fill="#3a3a3a" d="M 202.5,112.5 C 203.978,112.238 205.311,112.571 206.5,113.5C 208.579,115.936 211.079,117.936 214,119.5C 214.667,130.167 214.667,140.833 214,151.5C 212.181,153.503 210.015,154.836 207.5,155.5C 208.452,154.548 209.452,153.548 210.5,152.5C 210.833,148.333 211.167,144.167 211.5,140C 211.64,135.326 211.14,130.826 210,126.5C 198.328,132.922 186.495,139.256 174.5,145.5C 166.453,151.457 158.12,156.957 149.5,162C 148.578,170.4 148.245,178.733 148.5,187C 148.836,188.03 149.503,188.53 150.5,188.5C 149.22,189.931 147.553,190.598 145.5,190.5C 145.5,181.167 145.5,171.833 145.5,162.5C 145.567,161.041 145.234,159.708 144.5,158.5C 144.389,157.883 144.056,157.383 143.5,157C 145.5,156.667 147.5,156.333 149.5,156C 170.099,144.029 190.766,132.029 211.5,120C 208.76,117.01 205.927,116.844 203,119.5C 202.5,119 202,118.5 201.5,118C 202.759,117.077 204.092,116.243 205.5,115.5C 204.23,114.712 203.23,113.712 202.5,112.5 Z"/></g>
<g><path style="opacity:1" fill="#b4b4b4" d="M 67.5,146.5 C 71.1684,147.061 74.1684,148.728 76.5,151.5C 73.1443,150.389 70.1443,148.723 67.5,146.5 Z"/></g>
<g><path style="opacity:1" fill="#c6c6c6" d="M 93.5,128.5 C 94.404,129.209 94.7373,130.209 94.5,131.5C 111.14,140.455 127.806,149.455 144.5,158.5C 145.234,159.708 145.567,161.041 145.5,162.5C 128.92,153.205 112.253,143.872 95.5,134.5C 93.9137,132.827 93.2471,130.827 93.5,128.5 Z"/></g>
<g><path style="opacity:1" fill="#1a1a1a" d="M 133.5,175.5 C 134.833,171.5 133.5,168.833 129.5,167.5C 129.791,166.351 130.624,165.684 132,165.5C 137.057,166.693 138.89,169.693 137.5,174.5C 136.264,175.246 134.93,175.579 133.5,175.5 Z"/></g>
<g><path style="opacity:1" fill="#bebebe" d="M 129.5,167.5 C 133.5,168.833 134.833,171.5 133.5,175.5C 128.914,174.329 127.581,171.662 129.5,167.5 Z"/></g>
<g><path style="opacity:1" fill="#4f4f4f" d="M 135.5,185.5 C 138.833,187.167 142.167,188.833 145.5,190.5C 144.399,191.598 143.066,191.765 141.5,191C 139.725,189.561 137.725,188.561 135.5,188C 136.598,187.23 136.598,186.397 135.5,185.5 Z"/></g>
</svg>
